<svg
      xmlns="http://www.w3.org/2000/svg"
      width="14"
      height="15"
      viewBox="0 0 14 15"
    >
      <g fill="none" fillRule="evenodd" stroke="none" strokeWidth="1">
        <path fill="#FFF" d="M0 0H14V15H0z" />
        <g>
          <g>
            <g transform="translate(0 4)">
              <path fill="#0156A8" d="M0 0H14V3H0z" />
              <path fill="#0071CE" d="M0 0H14V3H0z" />
              <path fill="#0156A8" d="M1 3H13V11H1z" />
              <path fill="#0071CE" d="M1 3H13V11H1z" />
            </g>
            <g strokeWidth="0.1" transform="translate(2.25)">
              <g>
                <path
                  fill="#E5A807"
                  stroke="#E5A807"
                  strokeLinejoin="round"
                  d="M4.255 4a14.29 14.29 0 01-.505-.025c-.777-.06-1.442-.213-1.996-.458C.748 3.073-.105 2.397.01 2.138c.116-.259 1.25-.365 2.31.109.707.316 1.352.9 1.935 1.753z"
                />
                <path
                  fill="#FFC220"
                  stroke="#FFC220"
                  d="M5.01 2.877C4.52 1.996 3.994 1.323 3.43.858 2.868.393 2.276.108 1.655.003 1.232-.027.871.16.57.565c-.3.405-.487.93-.56 1.573.87.095 1.648.293 2.333.594.685.3 1.074.723 1.167 1.268h1.5V2.877z"
                />
              </g>
              <g transform="matrix(-1 0 0 1 9.51 0)">
                <path
                  fill="#E5A807"
                  stroke="#E5A807"
                  strokeLinejoin="round"
                  d="M4.255 4a14.29 14.29 0 01-.505-.025c-.777-.06-1.442-.213-1.996-.458C.748 3.073-.105 2.397.01 2.138c.116-.259 1.25-.365 2.31.109.707.316 1.352.9 1.935 1.753z"
                />
                <path
                  fill="#FFC220"
                  stroke="#FFC220"
                  d="M5.01 2.877C4.52 1.996 3.994 1.323 3.43.858 2.868.393 2.276.108 1.655.003 1.232-.027.871.16.57.565c-.3.405-.487.93-.56 1.573.87.095 1.648.293 2.333.594.685.3 1.074.723 1.167 1.268h1.5V2.877z"
                />
              </g>
            </g>
          </g>
          <path stroke="#013566" d="M1.5 7.5H12.5V8.5H1.5z" />
          <path fill="#FFC220" d="M5.75 4H8.25V15H5.75z" />
        </g>
      </g>
    </svg>
