<svg width="16" height="17" viewBox="0 0 16 17" fill="none" xmlns="http://www.w3.org/2000/svg">
<circle cx="8" cy="8.00122" r="8" fill="#0071DC"/>
<path d="M7.82124 3.81149L7.82114 3.8114L7.78995 3.84593L7.78647 3.84979L7.78637 3.84969L7.45073 4.18453H8.15053C10.3582 4.18453 12.1536 5.97964 12.1536 8.1876C12.1536 10.3953 10.3582 12.1904 8.15053 12.1904C5.94556 12.1904 4.15049 10.3952 4.15049 8.1876C4.15049 7.88107 4.39933 7.63223 4.70586 7.63223C5.01239 7.63223 5.26123 7.88107 5.26123 8.1876C5.26123 9.78231 6.55606 11.0796 8.15053 11.0796C9.74513 11.0796 11.0429 9.78218 11.0429 8.1876C11.0429 6.62 9.78912 5.33972 8.23208 5.29641L8.14983 5.29528H7.44679L7.78645 5.63596L7.82124 3.81149ZM7.82124 3.81149L7.82447 3.80752M7.82124 3.81149L7.82447 3.80752M7.82447 3.80752C8.00201 3.58956 7.9895 3.26662 7.78645 3.06358L7.71574 3.13429M7.82447 3.80752L7.0379 6.45101M7.0379 6.45101L7.038 6.45091L7.00341 6.41882L7.00059 6.4162L7.00065 6.41615L5.72177 5.13424C5.63284 5.04676 5.57189 4.92979 5.55804 4.79732L5.55736 4.79076L5.55757 4.79075L5.55574 4.74283L5.55559 4.739H5.55567C5.55567 4.61584 5.59594 4.49131 5.67915 4.38898L5.6824 4.38498L5.6825 4.38507L5.71374 4.35045L5.71718 4.34664L5.71728 4.34673L7.00067 3.06364C7.00069 3.06362 7.00071 3.0636 7.00072 3.06359C7.00073 3.06358 7.00073 3.06358 7.00074 3.06357C7.21693 2.84708 7.57035 2.8471 7.78652 3.06364L7.71574 3.13429M7.0379 6.45101L7.04195 6.45439M7.0379 6.45101L7.04195 6.45439M7.71574 3.13429C7.53862 2.95686 7.24856 2.95686 7.07144 3.13429H7.71574ZM7.04195 6.45439C7.14443 6.53992 7.27042 6.58147 7.39359 6.58147C7.5335 6.58147 7.67782 6.52776 7.78402 6.41868M7.04195 6.45439L7.78402 6.41868M7.78402 6.41868C8.00298 6.20214 8.00275 5.85237 7.78656 5.63606L7.78402 6.41868Z" fill="white" stroke="white" stroke-width="0.2" stroke-linejoin="round"/>
</svg>
